HIERARCHY
ROOT Hips
{
	OFFSET 0.000000 8.830580 0.000000
	CHANNELS 6 Xposition Yposition Zposition Zrotation Yrotation Xrotation 
	JOINT Spine
	{
		OFFSET 0.000000 0.010000 0.000000
		CHANNELS 3 Zrotation Yrotation Xrotation
		JOINT Spine1
		{
			OFFSET 0.000000 2.459130 0.000000
			CHANNELS 3 Zrotation Yrotation Xrotation
			JOINT Neck
			{
				OFFSET 0.000000 2.484630 0.000000
				CHANNELS 3 Zrotation Yrotation Xrotation
				JOINT Head_virtual
				{
					OFFSET 0.000000 0.000000 0.000000
					CHANNELS 3 Zrotation Yrotation Xrotation
					JOINT Head
					{
						OFFSET 0.000000 0.927525 0.000000
						CHANNELS 3 Zrotation Yrotation Xrotation
						End Site
						{
							OFFSET 0.000000 0.000000 0.000000
						}
					}
				}
				JOINT LeftUpArm_virtual
				{
					OFFSET 0.000000 0.000000 0.000000
					CHANNELS 3 Zrotation Yrotation Xrotation
					JOINT LeftUpArm
					{
						OFFSET 1.248820 0.000000 0.000000
						CHANNELS 3 Zrotation Yrotation Xrotation
						JOINT LeftForeArm
						{
							OFFSET 2.597580 0.000000 0.000000
							CHANNELS 3 Zrotation Yrotation Xrotation
							JOINT LeftHand
							{
								OFFSET 2.455420 0.000000 0.000000
								CHANNELS 3 Zrotation Yrotation Xrotation
								End Site
								{
									OFFSET 0.000000 0.000000 0.000000
								}
							}
						}
					}
				}
				JOINT RightUpArm_virtual
				{
					OFFSET -0.000000 -0.000000 -0.000000
					CHANNELS 3 Zrotation Yrotation Xrotation
					JOINT RightUpArm
					{
						OFFSET -1.248820 -0.000000 -0.000000
						CHANNELS 3 Zrotation Yrotation Xrotation
						JOINT RightForeArm
						{
							OFFSET -2.597580 -0.000000 -0.000000
							CHANNELS 3 Zrotation Yrotation Xrotation
							JOINT RightHand
							{
								OFFSET -2.455420 -0.000000 -0.000000
								CHANNELS 3 Zrotation Yrotation Xrotation
								End Site
								{
									OFFSET 0.000000 0.000000 0.000000
								}
							}
						}
					}
				}
			}
		}
	}
	JOINT LeftUpLeg
	{
		OFFSET 1.271939 0.000000 0.000000
		CHANNELS 3 Zrotation Yrotation Xrotation
		JOINT LeftLowLeg
		{
			OFFSET 0.000000 -4.342910 0.000000
			CHANNELS 3 Zrotation Yrotation Xrotation
			JOINT LeftFoot
			{
				OFFSET 0.000000 -4.487670 0.000000
				CHANNELS 3 Zrotation Yrotation Xrotation
				JOINT LeftToeBase
				{
					OFFSET 0.000000 0.000000 1.515070
					CHANNELS 3 Zrotation Yrotation Xrotation
					End Site
					{
						OFFSET 0.000000 0.000000 0.000000
					}
				}
			}
		}
	}
	JOINT RightUpLeg
	{
		OFFSET -1.271939 0.000000 0.000000
		CHANNELS 3 Zrotation Yrotation Xrotation
		JOINT RightLowLeg
		{
			OFFSET 0.000000 -4.342910 0.000000
			CHANNELS 3 Zrotation Yrotation Xrotation
			JOINT RightFoot
			{
				OFFSET 0.000000 -4.487670 0.000000
				CHANNELS 3 Zrotation Yrotation Xrotation
				JOINT RightToeBase
				{
					OFFSET 0.000000 0.000000 1.515070
					CHANNELS 3 Zrotation Yrotation Xrotation
					End Site
					{
						OFFSET 0.000000 0.000000 0.000000
					}
				}
			}
		}
	}
}
MOTION
Frames: 10
Frame Time: 0.041667
-12.428339 8.947120 38.824965 -174.276589 -30.458265 -175.865609 5.943829 1.415149 -19.980154 -0.713903 -1.411909 8.189654 0.000000 0.000000 0.000000 2.555131 7.492744 -6.734448 -19.354754 -7.620074 -71.626584 -21.766399 -6.104550 6.738810 -19.247999 -54.740002 2.789001 0.000000 -58.980999 0.000000 35.311001 -0.630064 55.487000 22.445101 2.875590 1.936440 24.896700 50.646500 2.828150 0.000000 47.949299 0.000000 -32.884201 17.169001 25.413000 10.227042 -24.115898 -23.627907 0.000000 0.000000 29.836000 -9.265685 17.582676 -6.009409 0.000000 0.000000 -11.725850 6.953542 25.430786 -9.506670 0.000000 0.000000 13.711200 7.389728 -21.919099 0.656240 0.000000 0.000000 -18.216630 
-12.397363 8.948986 38.812938 -174.204151 -30.861834 -176.207395 6.017596 1.249102 -19.953942 -0.659471 -1.578097 8.122502 0.000000 0.000000 0.000000 2.161496 7.851477 -6.349065 -19.403989 -7.338666 -71.279318 -21.620600 -5.962950 6.786930 -18.719500 -55.064999 1.734985 0.000000 -60.004601 0.000000 35.596699 -1.775480 56.824005 22.550100 2.887490 2.054670 23.964001 51.108200 2.352090 0.000000 49.358898 0.000000 -33.837101 18.361500 26.161301 10.206524 -24.523769 -23.789371 0.000000 0.000000 30.922701 -9.517026 16.398767 -6.326447 0.000000 0.000000 -11.940030 7.312405 25.456326 -8.621101 0.000000 0.000000 12.585100 7.592556 -22.137464 0.856655 0.000000 0.000000 -18.045860 
-12.374106 8.952745 38.799745 -174.274940 -31.157481 -176.293023 6.080932 1.208535 -20.226095 -0.816016 -1.611683 8.282200 0.000000 0.000000 0.000000 1.833410 8.255566 -5.976763 -19.179484 -7.057911 -71.030686 -21.490299 -5.750750 6.710010 -18.333799 -55.271801 0.856995 0.000000 -61.165798 0.000000 35.855598 -2.479390 57.121002 22.645800 2.689390 1.965590 23.679399 51.362801 1.926890 0.000000 50.555099 0.000000 -35.857399 20.456301 25.911800 9.904484 -24.688171 -23.875637 0.000000 0.000000 31.873199 -9.300005 15.742135 -6.520469 0.000000 0.000000 -12.082060 7.419022 25.442724 -7.958517 0.000000 0.000000 11.566600 7.986006 -22.086271 0.947429 0.000000 0.000000 -17.932770 
-12.355020 8.958202 38.784689 -174.384606 -31.289299 -176.362346 6.046757 1.305615 -20.533772 -0.845104 -1.494593 8.516509 0.000000 0.000000 0.000000 1.643101 8.508765 -5.474856 -19.069595 -6.924376 -70.902020 -21.456900 -5.641540 6.590680 -18.157101 -55.216301 0.083008 0.000000 -62.445301 0.000000 36.497200 -2.869780 56.869995 22.631599 2.410730 1.836100 23.220600 51.259899 1.403890 0.000000 52.030399 0.000000 -37.706699 21.964399 25.012199 9.353806 -24.556180 -23.657980 0.000000 0.000000 32.659302 -9.033811 15.865071 -6.769812 0.000000 0.000000 -12.288510 7.469532 25.869358 -7.306127 0.000000 0.000000 10.602400 8.352403 -22.348050 1.044780 0.000000 0.000000 -17.918690 
-12.340331 8.963178 38.768351 -174.516341 -31.200211 -176.359630 5.989375 1.560114 -20.878201 -0.849685 -1.243396 8.734443 0.000000 0.000000 0.000000 1.639983 8.628396 -4.924858 -19.040878 -6.820566 -70.771737 -21.416000 -5.613530 6.525240 -18.199200 -54.861500 -0.834991 0.000000 -63.928600 0.000000 36.784000 -2.803510 55.890991 22.552700 2.057870 1.579680 22.920099 50.841702 1.022510 0.000000 53.637600 0.000000 -39.208801 22.736500 24.773500 8.644274 -24.103817 -23.176090 0.000000 0.000000 33.172401 -8.638811 16.426503 -7.285171 0.000000 0.000000 -12.054230 7.450149 26.749594 -6.766650 0.000000 0.000000 9.764310 8.652819 -22.872958 1.123014 0.000000 0.000000 -17.906750 
-12.329392 8.965864 38.750924 -174.699352 -30.989578 -176.201584 5.825496 1.863616 -21.189047 -0.705573 -0.916122 8.667267 0.000000 0.000000 0.000000 1.724599 8.667286 -4.200165 -19.072129 -6.785898 -70.678998 -21.396900 -5.522050 6.344510 -18.671900 -54.300499 -1.278992 0.000000 -65.379303 0.000000 37.037701 -2.488540 54.894012 22.343901 1.562480 1.256910 22.905300 50.274101 0.800757 0.000000 55.124298 0.000000 -39.728500 23.625401 25.230499 7.816326 -23.322134 -22.562317 0.000000 0.000000 33.394100 -8.023887 17.151726 -7.733495 0.000000 0.000000 -12.192140 7.360782 27.246847 -6.399942 0.000000 0.000000 9.051020 8.731919 -23.042643 1.203864 0.000000 0.000000 -17.971570 
-12.321232 8.967584 38.733460 -174.873743 -30.723522 -175.978471 5.882507 2.086950 -21.689715 -0.926761 -0.728723 8.807658 0.000000 0.000000 0.000000 1.722026 8.927554 -3.432563 -18.946745 -6.654016 -70.715417 -21.234600 -5.245800 5.945740 -19.026400 -53.458599 -1.786987 0.000000 -66.790703 0.000000 37.025002 -1.995830 54.558990 22.288300 1.443670 0.815714 23.054600 49.563499 0.972538 0.000000 56.426399 0.000000 -40.199100 24.092100 25.405600 6.979182 -22.329400 -21.853227 0.000000 0.000000 33.350101 -7.728099 17.439166 -8.206634 0.000000 0.000000 -12.048020 7.251424 27.455011 -6.142486 0.000000 0.000000 8.418800 8.742849 -22.929948 1.319371 0.000000 0.000000 -17.931760 
-12.316324 8.967629 38.715658 -174.989795 -30.555485 -175.705283 6.082826 2.188127 -22.324655 -1.361407 -0.684641 9.031290 0.000000 0.000000 0.000000 1.838573 9.212951 -2.704452 -18.884703 -6.407716 -70.766402 -21.007299 -4.876370 5.441360 -19.254101 -52.422798 -2.363007 0.000000 -68.199699 0.000000 36.267601 -1.097450 53.752014 22.306400 1.402780 0.369714 23.273100 48.994301 1.384450 0.000000 57.275200 0.000000 -41.115200 24.038000 24.988001 6.250571 -21.402798 -21.095423 0.000000 0.000000 32.933601 -7.481534 17.342680 -8.528821 0.000000 0.000000 -12.112050 7.157712 27.652654 -5.948035 0.000000 0.000000 7.775730 8.848728 -22.912762 1.400305 0.000000 0.000000 -17.924360 
-12.315283 8.965756 38.696999 -175.006547 -30.535572 -175.441701 5.893478 2.301724 -22.588830 -0.977407 -0.510258 8.415516 0.000000 0.000000 0.000000 2.144850 9.130703 -1.519281 -18.744298 -6.561120 -70.920516 -21.250099 -4.939740 5.527440 -19.383400 -51.217602 -2.953003 0.000000 -69.488502 0.000000 35.627998 -0.626356 53.427002 22.036501 0.687808 0.191806 23.387100 48.396400 1.586930 0.000000 58.062000 0.000000 -41.645302 23.528400 24.181400 5.702372 -20.804171 -20.263960 0.000000 0.000000 32.122101 -7.343714 17.107042 -8.756142 0.000000 0.000000 -12.182530 7.120681 27.945661 -5.675944 0.000000 0.000000 6.893790 8.478078 -23.267757 1.708163 0.000000 0.000000 -17.875100 
-12.317630 8.962489 38.675453 -174.885420 -30.648780 -175.283694 6.089287 2.270412 -23.088373 -1.162009 -0.593767 8.335881 0.000000 0.000000 0.000000 2.594434 9.108531 -0.736565 -18.575829 -6.487438 -71.108762 -21.201599 -4.635420 5.383130 -19.297501 -50.147999 -3.726013 0.000000 -70.660797 0.000000 35.272301 -0.449446 53.083008 22.020399 0.293548 0.011387 23.522499 47.813000 1.745970 0.000000 59.266499 0.000000 -41.814800 21.650499 23.307501 5.359166 -20.651082 -19.219582 0.000000 0.000000 30.741600 -7.338592 16.891760 -8.792564 0.000000 0.000000 -12.198310 7.220820 28.403947 -5.233219 0.000000 0.000000 5.814300 8.198486 -23.852720 2.027977 0.000000 0.000000 -17.798740 
